Coordinates
version=1
nRows=17
nColumns=40
inDegrees=yes

Units are S.I. units (second, meters, Newtons, ...)
Angles are in degrees.

endheader
time	pelvis_tilt	pelvis_list	pelvis_rotation	pelvis_tx	pelvis_ty	pelvis_tz	hip_flexion_r	hip_adduction_r	hip_rotation_r	knee_angle_r	knee_angle_r_beta	ankle_angle_r	subtalar_angle_r	mtp_angle_r	hip_flexion_l	hip_adduction_l	hip_rotation_l	knee_angle_l	knee_angle_l_beta	ankle_angle_l	subtalar_angle_l	mtp_angle_l	lumbar_extension	lumbar_bending	lumbar_rotation	arm_flex_r	arm_add_r	arm_rot_r	elbow_flex_r	pro_sup_r	wrist_flex_r	wrist_dev_r	arm_flex_l	arm_add_l	arm_rot_l	elbow_flex_l	pro_sup_l	wrist_flex_l	wrist_dev_l
      4.81000000	     -2.26978650	     -5.20509497	      2.52895104	      1.02243510	      0.93330985	      0.49537760	      9.83471603	      2.70068973	    -15.53210786	     14.57861958	     14.57861958	      8.31693287	     -0.59155715	     -6.01641420	     30.91128640	    -13.80564153	      3.53125849	     65.21928561	     65.21928561	      3.91764379	    -17.06550747	      7.47224583	    -10.08300934	      6.58355283	      3.38108179	     25.75371253	    -20.04994794	     -5.20464723	     80.23441830	     45.33564291	      0.00000000	      0.00000000	     -8.36205113	     -7.45981078	      5.51084457	     26.67396684	     45.13895831	      0.00000000	      0.00000000
      4.82292857	     -2.51586067	     -5.06529837	      3.19923285	      1.02042359	      0.93376645	      0.49560402	      9.40125906	      2.67543921	    -15.91458874	     13.73541604	     13.73541604	      8.24419884	     -0.68702930	     -5.95690400	     32.19149813	    -13.47739429	      3.39140976	     62.94281722	     62.94281722	      4.23268085	    -17.82749391	      7.74713531	    -10.03822749	      6.40305837	      3.16000595	     27.56809571	    -20.11890123	     -5.53305878	     82.26030703	     45.28890104	      0.00000000	      0.00000000	     -8.89320814	     -7.25597208	      5.48406511	     26.54931524	     45.14283481	      0.00000000	      0.00000000
      4.83585714	     -2.73137482	     -4.94737736	      3.86098115	      1.01849269	      0.93419565	      0.49584669	      8.91501440	      2.68727162	    -16.34493733	     12.85242404	     12.85242404	      8.09513020	     -0.74070236	     -6.04083628	     33.24660766	    -13.18349023	      3.12393679	     60.38890074	     60.38890074	      4.66532221	    -18.25684633	      8.24644303	    -10.04985712	      6.23173460	      3.06183981	     29.26629329	    -20.34988799	     -5.93495752	     84.74041158	     45.23068051	      0.00000000	      0.00000000	     -9.41811171	     -7.06854842	      5.37569444	     26.59714826	     45.16112734	      0.00000000	      0.00000000
      4.84878571	     -3.09345894	     -4.78183117	      4.49614441	      1.01634777	      0.93421374	      0.49594189	      8.75410601	      2.57999832	    -16.66842825	     12.27905874	     12.27905874	      8.12033135	     -0.86830443	     -6.05321753	     34.33545351	    -12.82219554	      2.69581471	     57.66534809	     57.66534809	      5.02589998	    -18.47385887	      8.69394831	     -9.88841844	      6.04643998	      3.24183559	     31.17195930	    -20.92752432	     -6.36613148	     86.03082941	     45.21231041	      0.00000000	      0.00000000	     -9.72786289	     -6.92314502	      5.34432343	     26.58945397	     45.16406004	      0.00000000	      0.00000000
      4.86171429	     -3.20808633	     -4.68855914	      5.12590935	      1.01450792	      0.93463372	      0.49605369	      8.16555521	      2.62298850	    -17.09666089	     11.40186135	     11.40186135	      7.96104254	     -0.88972584	     -6.16359009	     34.87011664	    -12.42298287	      2.40390762	     54.54870630	     54.54870630	      5.53873916	    -18.71644287	      9.61084063	    -10.07188507	      5.89940312	      3.10642445	     32.76591794	    -20.93807928	     -6.74168523	     88.49892446	     45.15377727	      0.00000000	      0.00000000	    -10.17725169	     -6.83598278	      5.21996860	     26.64554115	     45.18303124	      0.00000000	      0.00000000
      4.87464286	     -3.38693500	     -4.66527166	      5.78596093	      1.01264262	      0.93468845	      0.49592565	      7.66784767	      2.71681426	    -17.57447834	     10.54296748	     10.54296748	      7.75573812	     -0.87775774	     -6.67915931	     35.42465181	    -11.99036703	      2.20537403	     51.38826330	     51.38826330	      6.19962325	    -18.68678172	     10.97559070	    -10.16942914	      5.89641986	      3.26337064	     33.96574683	    -21.32339401	     -7.44187353	     91.57596938	     45.08791152	      0.00000000	      0.00000000	    -10.47953721	     -6.71456789	      4.88037927	     27.01178286	     45.24507219	      0.00000000	      0.00000000
      4.88757143	     -3.68664724	     -4.58832066	      6.36116604	      1.01061692	      0.93440664	      0.49576099	      7.48316046	      2.68321422	    -17.96223682	     10.00713020	     10.00713020	      7.46104768	     -1.03316817	     -7.73451620	     35.94356521	    -11.41000673	      2.07508284	     48.08103536	     48.08103536	      6.82447882	    -18.57042429	     12.41233360	    -10.16739430	      5.76233732	      3.96990870	     34.82056421	    -22.17216178	     -8.71100364	     94.22194440	     45.06123702	      0.00000000	      0.00000000	    -10.39692119	     -6.63501414	      4.18773917	     27.29572824	     45.38673892	      0.00000000	      0.00000000
      4.90050000	     -3.97608194	     -4.55761654	      6.91916173	      1.00862038	      0.93400628	      0.49543180	      7.36179137	      2.67537645	    -18.28616293	      9.64448119	      9.64448119	      7.56443540	     -1.18240418	     -7.79034278	     36.28371275	    -10.82665608	      2.02119385	     44.59932312	     44.59932312	      7.06211345	    -18.30900719	     12.80437145	    -10.07104959	      5.69427353	      4.01416104	     36.54138836	    -22.48019733	     -9.00065136	     95.12174988	     45.05089325	      0.00000000	      0.00000000	    -10.45283904	     -6.57892693	      4.14048427	     27.26067929	     45.39661284	      0.00000000	      0.00000000
      4.91342857	     -4.23029579	     -4.59911092	      7.47115312	      1.00666558	      0.93351767	      0.49497768	      7.23629035	      2.72832646	    -18.66809160	      9.33900996	      9.33900996	      7.67830175	     -1.29998726	     -7.88715214	     36.49254753	    -10.25620520	      2.14993599	     41.10793133	     41.10793133	      7.24557733	    -17.75752578	     13.12349269	    -10.00618034	      5.73186496	      4.03462750	     38.07709648	    -22.71164559	     -9.25092551	     96.02976676	     45.03799260	      0.00000000	      0.00000000	    -10.44784574	     -6.53487445	      4.07459009	     27.30085313	     45.40971135	      0.00000000	      0.00000000
      4.92635714	     -4.30311149	     -4.56431684	      7.97341382	      1.00499705	      0.93325703	      0.49441368	      6.83469262	      2.72585948	    -19.10300345	      8.93171972	      8.93171972	      7.75576225	     -1.13125924	     -8.18784276	     36.26411962	     -9.57554366	      2.47673319	     37.52516678	     37.52516678	      7.28202092	    -17.20998065	     13.04747525	    -10.18420657	      5.66630628	      3.94288929	     39.37981395	    -22.59137846	     -9.51214414	     97.57010639	     45.00661114	      0.00000000	      0.00000000	    -10.47519242	     -6.53653796	      3.79976866	     27.44712674	     45.45912191	      0.00000000	      0.00000000
      4.93928571	     -4.46718795	     -4.63236113	      8.45562510	      1.00339462	      0.93266761	      0.49371603	      6.55743711	      2.78983718	    -19.72032990	      8.55995809	      8.55995809	      7.76207180	     -0.73287776	     -8.92198917	     36.11080477	     -9.05305448	      2.78886417	     34.12117534	     34.12117534	      6.89709586	    -16.19130683	     11.72905611	    -10.21426578	      5.73106032	      4.14338222	     40.35994194	    -22.75357504	    -10.17791748	     99.28835643	     44.98921543	      0.00000000	      0.00000000	    -10.39140038	     -6.48245239	      2.84183758	     27.95915149	     45.62639432	      0.00000000	      0.00000000
      4.95221429	     -4.68627464	     -4.85171476	      8.90973004	      1.00180619	      0.93183510	      0.49304823	      6.51581350	      2.99733935	    -20.02011510	      8.48878444	      8.48878444	      7.97355112	     -0.92423925	     -9.04883582	     36.14527444	     -8.68190007	      3.29423780	     31.24211438	     31.24211438	      7.15267653	    -14.75691119	     11.90580482	    -10.06803596	      5.93598985	      4.27403504	     41.45781442	    -22.97574285	    -10.33955892	     99.61359282	     44.98998100	      0.00000000	      0.00000000	    -10.13827439	     -6.51670500	      2.75547188	     28.07862918	     45.64543165	      0.00000000	      0.00000000
      4.96514286	     -4.76006834	     -4.79594040	      9.20781740	      1.00064318	      0.93139325	      0.49236307	      6.18256950	      2.95931336	    -20.18284842	      8.29205357	      8.29205357	      8.22682870	     -0.92471554	     -9.20046952	     35.76768847	     -8.22092096	      3.43788442	     28.53724797	     28.53724797	      7.44108767	    -13.13496002	     11.95912741	    -10.11526098	      5.77882047	      4.36164365	     42.45846890	    -22.91731015	    -10.48251238	    100.09825458	     44.98524070	      0.00000000	      0.00000000	     -9.89168991	     -6.57372602	      2.58994675	     28.23946064	     45.67708159	      0.00000000	      0.00000000
      4.97807143	     -4.76258785	     -4.88753499	      9.53434034	      0.99969010	      0.93096634	      0.49158258	      5.77082757	      3.08460250	    -20.48374750	      8.06706949	      8.06706949	      8.41061143	     -0.75926226	     -9.37560949	     35.38944805	     -7.96230998	      3.54742558	     26.30193302	     26.30193302	      7.63131421	    -11.34913991	     11.84948956	    -10.19106714	      5.84418017	      4.38594810	     43.21303880	    -22.68476992	    -10.71381667	    100.54746171	     44.98441150	      0.00000000	      0.00000000	     -9.61104554	     -6.68671881	      2.27582239	     28.53828592	     45.73229919	      0.00000000	      0.00000000
      4.99100000	     -4.85528133	     -5.03732569	      9.77474143	      0.99892330	      0.93033149	      0.49079121	      5.49383194	      3.25012013	    -20.69521220	      7.92388007	      7.92388007	      8.63477979	     -0.65616642	     -9.49281011	     35.13839046	     -7.77831590	      3.64769771	     24.57116070	     24.57116070	      7.81952425	     -9.93488506	     11.78077725	    -10.09310149	      5.91362655	      4.49238282	     43.82670211	    -22.53602320	    -10.90712107	    100.76000682	     44.98810900	      0.00000000	      0.00000000	     -9.31614088	     -6.75300649	      2.05185473	     28.85183224	     45.77153172	      0.00000000	      0.00000000
      5.00392857	     -4.86434397	     -5.12011942	      9.93459971	      0.99852669	      0.92986329	      0.48996904	      5.05893102	      3.37766490	    -20.87201496	      7.71184612	      7.71184612	      8.87316664	     -0.42524216	     -9.60256703	     34.72671404	     -7.63676824	      3.46003355	     23.24158854	     23.24158854	      7.97680584	     -8.64825979	     11.63324810	    -10.07582702	      5.90844253	      4.58520263	     44.20428923	    -22.22727312	    -11.16590167	    100.83513870	     44.99761834	      0.00000000	      0.00000000	     -9.01262606	     -6.86519093	      1.75861524	     29.23159354	     45.82159447	      0.00000000	      0.00000000
      5.01685714	     -4.94290233	     -5.32302859	     10.09999880	      0.99830205	      0.92898370	      0.48901414	      4.78908486	      3.58437810	    -20.93504996	      7.67447878	      7.67447878	      9.23860306	     -0.41749504	     -9.72883431	     34.64927811	     -7.52667268	      3.53206360	     22.75632054	     22.75632054	      8.09439248	     -8.24332422	     11.58903974	     -9.87033355	      6.05994544	      4.69545460	     44.30497228	    -22.01328342	    -11.16713373	    100.81922792	     44.99878711	      0.00000000	      0.00000000	     -8.58604398	     -7.04176699	      1.67223149	     29.45405898	     45.84165465	      0.00000000	      0.00000000
